<svg id="Camada_1" data-name="Camada 1" xmlns="http://www.w3.org/2000/svg" viewBox="0 0 595.28 820.7"><defs><style>.cls-1{fill:#96cb9f;}.cls-2{fill:#063;}.cls-3{fill:#76bd81;}.cls-4{fill:#c3dfbe;}.cls-5{fill:#3c3c3b;}.cls-6{fill:#575756;}.cls-7{fill:#e94e1b;}.cls-8{fill:#1d1d1b;}</style></defs><rect class="cls-1" width="595.28" height="820.7"/><rect class="cls-2" y="24.7" width="595.28" height="48"/><rect class="cls-3" x="92.75" y="86.7" width="474.25" height="670"/><rect class="cls-4" x="106.07" y="142.19" width="180" height="208.76"/><path class="cls-5" d="M196.45,245.57a35.13,35.13,0,1,0-35.12-35.12A35.12,35.12,0,0,0,196.45,245.57ZM221,254.35h-4.58a47.78,47.78,0,0,1-40,0h-4.58A36.89,36.89,0,0,0,135,291.23v11.42a13.17,13.17,0,0,0,13.17,13.17h96.59a13.17,13.17,0,0,0,13.17-13.17V291.23A36.89,36.89,0,0,0,221,254.35Z" transform="translate(0 -1.3)"/><rect class="cls-4" x="99" y="97.7" width="456" height="28"/><rect class="cls-4" x="297.64" y="134.7" width="257.36" height="30"/><rect class="cls-4" x="297.64" y="179.7" width="149.36" height="27.17"/><rect class="cls-4" x="452" y="179.7" width="103" height="27.17"/><rect class="cls-4" x="297.64" y="216.33" width="257.36" height="90.37"/><rect class="cls-4" x="99" y="367.7" width="180" height="28"/><rect class="cls-4" x="285" y="367.7" width="124" height="28"/><rect class="cls-4" x="417" y="367.7" width="138" height="28"/><rect class="cls-4" x="99" y="424.7" width="456" height="153"/><rect class="cls-4" x="99" y="656.7" width="327.32" height="30"/><rect class="cls-4" x="434" y="656.7" width="121" height="30"/><rect class="cls-6" x="105.3" y="106.15" width="274.72" height="11.91"/><rect class="cls-6" x="304.79" y="143.57" width="164.43" height="12.26"/><rect class="cls-6" x="304.79" y="186.99" width="133.11" height="12.6"/><rect class="cls-6" x="460.02" y="186.99" width="88.17" height="12.6"/><rect class="cls-6" x="304.79" y="225.64" width="233.87" height="10.89"/><rect class="cls-6" x="304.79" y="239.28" width="164.43" height="10.89"/><rect class="cls-6" x="304.79" y="258.37" width="198.71" height="10.89"/><rect class="cls-6" x="426.32" y="376.25" width="119.15" height="10.89"/><rect class="cls-6" x="112.43" y="666.25" width="180.57" height="10.89"/><rect class="cls-6" x="112.43" y="616.53" width="180.57" height="10.89"/><rect class="cls-6" x="442.2" y="666.25" width="103.27" height="10.89"/><rect class="cls-7" x="106.07" y="376.25" width="165.69" height="10.89"/><rect class="cls-7" x="293" y="376.25" width="108.81" height="10.89"/><path class="cls-8" d="M285,51.45c-.86,4-3.87,6.9-9.22,6.9-6.78,0-10-4.8-10-10.88,0-5.86,3.3-11.11,10.2-11.11,5.69,0,8.45,3.34,9,6.91h-4.62a4.18,4.18,0,0,0-4.5-3.29c-3.81,0-5.28,3.43-5.28,7.32,0,3.61,1.28,7.42,5.41,7.42a4.25,4.25,0,0,0,4.37-3.27Z" transform="translate(0 -1.3)"/><path class="cls-8" d="M288.56,58V36.67h5.73c2.67,4.8,7.61,13.45,8.59,15.78h.06c-.24-2.23-.24-5.94-.24-9.45V36.67h4.19V58h-5.43c-2.3-4.17-7.77-14.12-8.83-16.59h-.06c.16,1.87.21,6.26.21,10.09V58Z" transform="translate(0 -1.3)"/><path class="cls-8" d="M312,36.67h4.62V45h8.6V36.67h4.62V58h-4.62V48.79h-8.6V58H312Z" transform="translate(0 -1.3)"/></svg>